<svg xmlns="http://www.w3.org/2000/svg" viewBox="0 0 1280 720" width="1280" height="720">
  <defs>
    <!-- Sky Gradient -->
    <linearGradient id="skyGrad" x1="0" y1="0" x2="0" y2="1">
      <stop offset="0%" stop-color="#74CEDD"/>
      <stop offset="60%" stop-color="#A8E6CF"/>
      <stop offset="100%" stop-color="#DCEDC1"/>
    </linearGradient>

    <!-- Sun Glow -->
    <radialGradient id="sunGlow" cx="50%" cy="50%" r="50%">
      <stop offset="0%" stop-color="#FFF9C4" stop-opacity="1"/>
      <stop offset="40%" stop-color="#FFE082" stop-opacity="0.8"/>
      <stop offset="100%" stop-color="#FFD54F" stop-opacity="0"/>
    </radialGradient>

    <!-- Grass Hill Gradients -->
    <linearGradient id="grassGrad1" x1="0" y1="0" x2="0" y2="1">
      <stop offset="0%" stop-color="#A8E063"/>
      <stop offset="100%" stop-color="#56AB2F"/>
    </linearGradient>
    <linearGradient id="grassGrad2" x1="0" y1="0" x2="0" y2="1">
      <stop offset="0%" stop-color="#76BA1B"/>
      <stop offset="100%" stop-color="#4C9A2A"/>
    </linearGradient>

    <!-- River Gradient -->
    <linearGradient id="riverGrad" x1="0" y1="0" x2="1" y2="0.5">
      <stop offset="0%" stop-color="#4FC3F7"/>
      <stop offset="50%" stop-color="#29B6F6"/>
      <stop offset="100%" stop-color="#0288D1"/>
    </linearGradient>

    <!-- School Wall Gradient -->
    <linearGradient id="schoolWall" x1="0" y1="0" x2="0" y2="1">
      <stop offset="0%" stop-color="#FFF9E6"/>
      <stop offset="100%" stop-color="#FFE0B2"/>
    </linearGradient>
    <linearGradient id="roofGrad" x1="0" y1="0" x2="0" y2="1">
      <stop offset="0%" stop-color="#E53935"/>
      <stop offset="100%" stop-color="#B71C1C"/>
    </linearGradient>

    <!-- Paving Path Gradient -->
    <linearGradient id="pathGrad" x1="0" y1="0" x2="0" y2="1">
      <stop offset="0%" stop-color="#E0E0E0"/>
      <stop offset="100%" stop-color="#BDBDBD"/>
    </linearGradient>

    <!-- Wood Texture Gradient -->
    <linearGradient id="woodGrad" x1="0" y1="0" x2="0" y2="1">
      <stop offset="0%" stop-color="#8D6E63"/>
      <stop offset="100%" stop-color="#4E342E"/>
    </linearGradient>

    <!-- Smoke Fade -->
    <linearGradient id="smokeGrad" x1="0" y1="1" x2="0" y2="0">
      <stop offset="0%" stop-color="#757575" stop-opacity="0.8"/>
      <stop offset="70%" stop-color="#9E9E9E" stop-opacity="0.4"/>
      <stop offset="100%" stop-color="#E0E0E0" stop-opacity="0"/>
    </linearGradient>
  </defs>

  <!-- SKY BACKGROUND -->
  <rect width="1280" height="720" fill="url(#skyGrad)"/>

  <!-- SUN -->
  <circle cx="1150" cy="90" r="100" fill="url(#sunGlow)"/>
  <circle cx="1150" cy="90" r="45" fill="#FFF59D"/>

  <!-- CLOUDS -->
  <g fill="#FFFFFF" opacity="0.95">
    <!-- Cloud 1 -->
    <path d="M 120 100 Q 140 70 180 80 Q 210 60 250 80 Q 280 90 270 120 Q 280 140 250 150 L 130 150 Q 100 140 120 100 Z"/>
    <!-- Cloud 2 -->
    <path d="M 550 70 Q 570 45 610 55 Q 640 35 680 55 Q 710 70 700 95 Q 710 115 680 125 L 560 125 Q 530 115 550 70 Z"/>
    <!-- Cloud 3 -->
    <path d="M 900 110 Q 920 85 960 95 Q 990 80 1020 95 Q 1050 110 1040 135 L 910 135 Q 880 125 900 110 Z"/>
  </g>

  <!-- MOUNTAINS / DISTANT TREES -->
  <path d="M -50 360 Q 150 240 350 340 T 750 300 T 1150 330 T 1350 310 L 1350 500 L -50 500 Z" fill="#81C784" opacity="0.6"/>

  <!-- SCHOOL BUILDING (BACKGROUND LEFT & CENTER) -->
  <g id="school-building">
    <!-- Main Wall -->
    <rect x="250" y="180" width="480" height="200" fill="url(#schoolWall)" rx="4" stroke="#D7CCC8" stroke-width="2"/>
    <!-- Roof -->
    <polygon points="230,185 490,110 750,185" fill="url(#roofGrad)"/>
    <!-- Roof Rim -->
    <polygon points="220,188 490,105 760,188 750,195 490,115 230,195" fill="#8E0000"/>

    <!-- School Sign Board -->
    <rect x="410" y="145" width="160" height="35" fill="#FFFFFF" rx="6" stroke="#4CAF50" stroke-width="3"/>
    <text x="490" y="168" font-family="'Poppins', 'Nunito', sans-serif" font-weight="900" font-size="15" fill="#2E7D32" text-anchor="middle">SD NEGERI SILIRAGUNG</text>

    <!-- Windows Top Row -->
    <rect x="280" y="210" width="60" height="50" fill="#E0F7FA" stroke="#00838F" stroke-width="3" rx="4"/>
    <line x1="310" y1="210" x2="310" y2="260" stroke="#00838F" stroke-width="2"/>
    <line x1="280" y1="235" x2="340" y2="235" stroke="#00838F" stroke-width="2"/>

    <rect x="360" y="210" width="60" height="50" fill="#E0F7FA" stroke="#00838F" stroke-width="3" rx="4"/>
    <line x1="390" y1="210" x2="390" y2="260" stroke="#00838F" stroke-width="2"/>
    <line x1="360" y1="235" x2="420" y2="235" stroke="#00838F" stroke-width="2"/>

    <rect x="560" y="210" width="60" height="50" fill="#E0F7FA" stroke="#00838F" stroke-width="3" rx="4"/>
    <line x1="590" y1="210" x2="590" y2="260" stroke="#00838F" stroke-width="2"/>
    <line x1="560" y1="235" x2="620" y2="235" stroke="#00838F" stroke-width="2"/>

    <rect x="640" y="210" width="60" height="50" fill="#E0F7FA" stroke="#00838F" stroke-width="3" rx="4"/>
    <line x1="670" y1="210" x2="670" y2="260" stroke="#00838F" stroke-width="2"/>
    <line x1="640" y1="235" x2="700" y2="235" stroke="#00838F" stroke-width="2"/>

    <!-- School Door (Center) -->
    <rect x="455" y="280" width="70" height="100" fill="#5D4037" rx="3"/>
    <rect x="465" y="290" width="22" height="80" fill="#8D6E63"/>
    <rect x="493" y="290" width="22" height="80" fill="#8D6E63"/>
    <circle cx="483" cy="335" r="4" fill="#FFD54F"/>

    <!-- Mading (School Info Board on Wall) -->
    <rect x="280" y="290" width="130" height="70" fill="#D7CCC8" stroke="#5D4037" stroke-width="3" rx="4"/>
    <rect x="288" y="298" width="114" height="54" fill="#FFF9C4"/>
    <text x="345" y="315" font-family="sans-serif" font-weight="bold" font-size="11" fill="#E65100" text-anchor="middle">📌 MADING ECOBRICK</text>
    <rect x="295" y="322" width="40" height="24" fill="#E8F5E9" rx="2"/>
    <rect x="342" y="322" width="52" height="6" fill="#81C784"/>
    <rect x="342" y="332" width="40" height="6" fill="#81C784"/>

    <!-- Clock above Door -->
    <circle cx="490" cy="220" r="18" fill="#FFFFFF" stroke="#37474F" stroke-width="3"/>
    <line x1="490" y1="220" x2="490" y2="208" stroke="#37474F" stroke-width="2"/>
    <line x1="490" y1="220" x2="498" y2="220" stroke="#37474F" stroke-width="2"/>
  </g>

  <!-- FLAG POLE (INDONESIAN FLAG) -->
  <g id="flagpole">
    <line x1="210" y1="150" x2="210" y2="380" stroke="#B0BEC5" stroke-width="6"/>
    <circle cx="210" cy="147" r="6" fill="#FFD54F"/>
    <!-- Red White Flag -->
    <rect x="213" y="155" width="50" height="17" fill="#E53935"/>
    <rect x="213" y="172" width="50" height="17" fill="#FFFFFF" stroke="#E0E0E0" stroke-width="0.5"/>
  </g>

  <!-- HILLS / MAIN GROUND -->
  <!-- Back Grass Layer -->
  <path d="M -20 380 Q 300 340 640 370 T 1300 350 L 1300 740 L -20 740 Z" fill="url(#grassGrad2)"/>
  <!-- Front Main Lawn -->
  <path d="M -20 420 Q 400 370 800 420 T 1300 400 L 1300 740 L -20 740 Z" fill="url(#grassGrad1)"/>

  <!-- PAVING STONE PATH -->
  <path d="M 450 380 Q 470 450 490 530 T 550 720 L 370 720 Q 380 570 380 470 T 430 380 Z" fill="url(#pathGrad)"/>
  <!-- Paving Lines -->
  <path d="M 430 410 L 460 410 M 410 450 L 470 450 M 395 500 L 485 500 M 385 560 L 505 560 M 375 630 L 525 630 M 370 690 L 540 690" stroke="#9E9E9E" stroke-width="2" stroke-dasharray="8,6"/>

  <!-- RIVER (LEFT SIDE FLOWING DOWN) -->
  <g id="river-section">
    <!-- Riverbed path -->
    <path d="M -20 500 Q 120 480 180 540 T 260 720 L -20 720 Z" fill="url(#riverGrad)"/>
    <!-- River Water Waves -->
    <path d="M 10 520 Q 80 510 120 540 T 200 660" fill="none" stroke="#E0F7FA" stroke-width="3" opacity="0.6"/>
    <path d="M 40 560 Q 100 550 140 580 T 210 700" fill="none" stroke="#E0F7FA" stroke-width="3" opacity="0.6"/>
    <!-- River Bank Stones -->
    <ellipse cx="140" cy="495" rx="14" ry="8" fill="#78909C"/>
    <ellipse cx="165" cy="505" rx="10" ry="6" fill="#90A4AE"/>
    <ellipse cx="190" cy="535" rx="16" ry="9" fill="#78909C"/>
    <ellipse cx="215" cy="570" rx="12" ry="7" fill="#90A4AE"/>
    <ellipse cx="240" cy="620" rx="18" ry="10" fill="#607D8B"/>
    <ellipse cx="265" cy="670" rx="15" ry="8" fill="#78909C"/>
    <!-- Cute Fish swimming in river -->
    <path d="M 60 590 C 70 580 85 585 90 590 C 85 595 70 600 60 590 Z M 90 590 L 98 585 L 98 595 Z" fill="#FF7043"/>
    <circle cx="67" cy="587" r="1.5" fill="#FFFFFF"/>
    <path d="M 110 650 C 120 640 135 645 140 650 C 135 655 120 660 110 650 Z M 140 650 L 148 645 L 148 655 Z" fill="#FFA726"/>
  </g>

  <!-- TREES AND BUSHES -->
  <g id="trees-and-bushes">
    <!-- Big Tree Left -->
    <rect x="50" y="240" width="30" height="200" fill="url(#woodGrad)" rx="5"/>
    <!-- Tree Foliage -->
    <circle cx="65" cy="230" r="65" fill="#43A047"/>
    <circle cx="35" cy="210" r="50" fill="#388E3C"/>
    <circle cx="95" cy="210" r="50" fill="#4CAF50"/>
    <circle cx="65" cy="170" r="55" fill="#66BB6A"/>

    <!-- Tree Right -->
    <rect x="1170" y="220" width="35" height="230" fill="url(#woodGrad)" rx="6"/>
    <circle cx="1187" cy="200" r="75" fill="#388E3C"/>
    <circle cx="1150" cy="180" r="60" fill="#43A047"/>
    <circle cx="1225" cy="180" r="60" fill="#66BB6A"/>

    <!-- Decorative Bushes -->
    <path d="M 720 370 Q 740 340 770 350 Q 800 330 830 350 Q 850 370 840 390 L 710 390 Z" fill="#66BB6A"/>
    <path d="M 950 380 Q 970 350 1000 360 Q 1030 340 1060 360 Q 1080 380 1070 400 L 940 400 Z" fill="#4CAF50"/>
    <!-- Flowers on Lawn -->
    <circle cx="320" cy="460" r="6" fill="#E91E63"/><circle cx="320" cy="460" r="2.5" fill="#FFEB3B"/>
    <circle cx="340" cy="475" r="5" fill="#9C27B0"/><circle cx="340" cy="475" r="2" fill="#FFEB3B"/>
    <circle cx="600" cy="480" r="6" fill="#FF9800"/><circle cx="600" cy="480" r="2.5" fill="#FFFFFF"/>
    <circle cx="630" cy="465" r="5" fill="#E91E63"/><circle cx="630" cy="465" r="2" fill="#FFEB3B"/>
    <circle cx="850" cy="460" r="6" fill="#2196F3"/><circle cx="850" cy="460" r="2.5" fill="#FFEB3B"/>
  </g>

  <!-- PARK BENCH (MIDDLE LEFT) -->
  <g id="park-bench">
    <!-- Legs -->
    <rect x="260" y="440" width="10" height="45" fill="#37474F"/>
    <rect x="330" y="440" width="10" height="45" fill="#37474F"/>
    <rect x="255" y="420" width="8" height="40" fill="#37474F"/>
    <rect x="337" y="420" width="8" height="40" fill="#37474F"/>
    <!-- Wooden Slats -->
    <rect x="250" y="420" width="95" height="10" fill="#A1887F" rx="2"/>
    <rect x="250" y="432" width="95" height="10" fill="#8D6E63" rx="2"/>
    <rect x="250" y="448" width="95" height="12" fill="#6D4C41" rx="2"/>
  </g>

  <!-- SORTED TRASH BINS (ORGANIC & ANORGANIC - CENTER RIGHT) -->
  <g id="trash-bins">
    <!-- Green Organic Bin -->
    <rect x="740" y="430" width="45" height="60" fill="#43A047" rx="5" stroke="#2E7D32" stroke-width="2"/>
    <rect x="735" y="422" width="55" height="12" fill="#2E7D32" rx="3"/>
    <text x="762" y="460" font-family="sans-serif" font-weight="900" font-size="9" fill="#FFFFFF" text-anchor="middle">ORGANIK</text>
    <path d="M 755 478 L 762 467 L 770 478 Z" fill="#A5D6A7"/>

    <!-- Blue Anorganic Bin -->
    <rect x="800" y="430" width="45" height="60" fill="#1E88E5" rx="5" stroke="#1565C0" stroke-width="2"/>
    <rect x="795" y="422" width="55" height="12" fill="#1565C0" rx="3"/>
    <text x="822" y="460" font-family="sans-serif" font-weight="900" font-size="8" fill="#FFFFFF" text-anchor="middle">ANORGANIK</text>
    <!-- Recycling Symbol -->
    <circle cx="822" cy="474" r="7" fill="none" stroke="#90CAF9" stroke-width="2" stroke-dasharray="4,2"/>
  </g>

  <!-- ECOBRICK DISPLAY RACK (RIGHT SIDE) -->
  <g id="ecobrick-rack">
    <!-- Wooden Rack Structure -->
    <rect x="960" y="410" width="220" height="120" fill="none" stroke="#5D4037" stroke-width="8" rx="4"/>
    <line x1="960" y1="470" x2="1180" y2="470" stroke="#5D4037" stroke-width="6"/>
    <!-- Roof Canopy of Rack -->
    <path d="M 945 410 L 1195 410 L 1180 395 L 960 395 Z" fill="#8D6E63"/>
    <text x="1070" y="406" font-family="sans-serif" font-weight="bold" font-size="11" fill="#FFFFFF" text-anchor="middle">🏆 KARYA ECOBRICK</text>

    <!-- Good Normal Ecobrick Bottles on Rack -->
    <!-- Top Shelf Good Bottles -->
    <g transform="translate(980, 420)">
      <rect x="0" y="0" width="22" height="40" fill="#E0F7FA" stroke="#00ACC1" stroke-width="1.5" rx="4"/>
      <rect x="4" y="8" width="14" height="28" fill="#FF4081" rx="2"/>
      <rect x="7" y="-5" width="8" height="6" fill="#00ACC1"/>
    </g>
    <g transform="translate(1010, 420)">
      <rect x="0" y="0" width="22" height="40" fill="#E0F7FA" stroke="#00ACC1" stroke-width="1.5" rx="4"/>
      <rect x="4" y="8" width="14" height="28" fill="#FFEB3B" rx="2"/>
      <rect x="7" y="-5" width="8" height="6" fill="#7C4DFF"/>
    </g>
    <g transform="translate(1130, 420)">
      <rect x="0" y="0" width="22" height="40" fill="#E0F7FA" stroke="#00ACC1" stroke-width="1.5" rx="4"/>
      <rect x="4" y="8" width="14" height="28" fill="#7C4DFF" rx="2"/>
      <rect x="7" y="-5" width="8" height="6" fill="#FF4081"/>
    </g>

    <!-- Bottom Shelf Good Bottles -->
    <g transform="translate(980, 478)">
      <rect x="0" y="0" width="22" height="40" fill="#E0F7FA" stroke="#00ACC1" stroke-width="1.5" rx="4"/>
      <rect x="4" y="8" width="14" height="28" fill="#00E676" rx="2"/>
      <rect x="7" y="-5" width="8" height="6" fill="#FF9100"/>
    </g>
    <g transform="translate(1070, 478)">
      <rect x="0" y="0" width="22" height="40" fill="#E0F7FA" stroke="#00ACC1" stroke-width="1.5" rx="4"/>
      <rect x="4" y="8" width="14" height="28" fill="#3D5AFE" rx="2"/>
      <rect x="7" y="-5" width="8" height="6" fill="#00E676"/>
    </g>
    <g transform="translate(1130, 478)">
      <rect x="0" y="0" width="22" height="40" fill="#E0F7FA" stroke="#00ACC1" stroke-width="1.5" rx="4"/>
      <rect x="4" y="8" width="14" height="28" fill="#FF9100" rx="2"/>
      <rect x="7" y="-5" width="8" height="6" fill="#3D5AFE"/>
    </g>
  </g>

  <!-- CHARACTERS (STUDENTS PLAYING IN SCHOOLYARD) -->
  <!-- Student 1: Happy Girl near path -->
  <g id="student-girl" transform="translate(560, 430)">
    <!-- Body & Clothes -->
    <path d="M 15 35 L 5 65 L 30 65 L 20 35 Z" fill="#E53935"/> <!-- Red Skirt -->
    <rect x="10" y="20" width="15" height="18" fill="#FFFFFF"/> <!-- White Shirt -->
    <!-- Head & Hair -->
    <circle cx="17" cy="10" r="10" fill="#FFCC80"/>
    <path d="M 7 10 C 7 -2 27 -2 27 10 Z" fill="#37474F"/> <!-- Hair -->
    <circle cx="5" cy="12" r="4" fill="#37474F"/> <!-- Ponytail left -->
    <circle cx="29" cy="12" r="4" fill="#37474F"/> <!-- Ponytail right -->
    <!-- Face -->
    <circle cx="14" cy="9" r="1.5" fill="#212121"/>
    <circle cx="20" cy="9" r="1.5" fill="#212121"/>
    <path d="M 14 13 Q 17 17 20 13" fill="none" stroke="#D81B60" stroke-width="1.5"/>
    <!-- Legs & Shoes -->
    <rect x="11" y="65" width="4" height="15" fill="#FFCC80"/>
    <rect x="20" y="65" width="4" height="15" fill="#FFCC80"/>
    <ellipse cx="12" cy="81" rx="4" ry="2" fill="#212121"/>
    <ellipse cx="21" cy="81" rx="4" ry="2" fill="#212121"/>
  </g>

  <!-- Student 2: Boy tossing candy wrapper (Mistake #10 Location) -->
  <g id="student-littering-boy" transform="translate(860, 420)">
    <!-- Shadow -->
    <ellipse cx="15" cy="82" rx="15" ry="4" fill="#000000" opacity="0.2"/>
    <!-- Legs -->
    <rect x="8" y="55" width="5" height="25" fill="#1565C0"/>
    <rect x="18" y="55" width="5" height="25" fill="#1565C0"/>
    <ellipse cx="9" cy="81" rx="4" ry="2" fill="#3E2723"/>
    <ellipse cx="20" cy="81" rx="4" ry="2" fill="#3E2723"/>
    <!-- Shirt -->
    <rect x="5" y="25" width="22" height="32" fill="#FFB300" rx="3"/>
    <!-- Head -->
    <circle cx="16" cy="13" r="11" fill="#FFCC80"/>
    <path d="M 5 12 C 5 0 27 0 27 12 Q 22 5 16 5 Q 10 5 5 12 Z" fill="#424242"/> <!-- Hair -->
    <!-- Face -->
    <circle cx="12" cy="13" r="1.5" fill="#212121"/>
    <circle cx="18" cy="13" r="1.5" fill="#212121"/>
    <path d="M 13 17 Q 16 19 19 17" fill="none" stroke="#424242" stroke-width="1.5"/>
    <!-- Arm throwing wrapper -->
    <path d="M 25 30 L 40 25 L 48 35" fill="none" stroke="#FFCC80" stroke-width="4" stroke-linecap="round"/>
  </g>


  <!-- ================================================================= -->
  <!-- 🕵️ THE 10 MISTAKE GRAPHICAL ELEMENTS EMBEDDED IN SCENE           -->
  <!-- ================================================================= -->

  <!-- MISTAKE 1: Botol Plastik di Sungai -->
  <g id="graphic-mistake-1" transform="translate(140, 560)">
    <!-- Floating Plastic Bottle -->
    <g class="item-visual">
      <ellipse cx="15" cy="22" rx="18" ry="6" fill="#0288D1" opacity="0.3"/>
      <rect x="0" y="5" width="30" height="14" fill="#E0F7FA" stroke="#00BCD4" stroke-width="2" rx="5" transform="rotate(-15)"/>
      <rect x="25" y="3" width="6" height="8" fill="#FF5722" transform="rotate(-15)"/>
      <!-- Water ripple -->
      <path d="M -5 18 Q 15 24 35 18" fill="none" stroke="#FFFFFF" stroke-width="2" opacity="0.8"/>
    </g>
  </g>

  <!-- MISTAKE 2: Bungkus Snack di Rumput (Near Park Bench) -->
  <g id="graphic-mistake-2" transform="translate(210, 465)">
    <g class="item-visual">
      <!-- Crushed Foil Snack Wrapper -->
      <polygon points="5,5 25,0 35,12 28,25 8,22 -2,12" fill="#FF9800" stroke="#E65100" stroke-width="1.5"/>
      <polygon points="8,7 20,4 28,12 20,20 10,18" fill="#FFD54F"/>
      <text x="15" y="14" font-family="sans-serif" font-weight="bold" font-size="6" fill="#D81B60" text-anchor="middle">CHIPS</text>
    </g>
  </g>

  <!-- MISTAKE 3: Kulit Pisang Dalam Ecobrick (On Rack Top Shelf) -->
  <g id="graphic-mistake-3" transform="translate(1045, 415)">
    <g class="item-visual">
      <!-- Ecobrick Bottle -->
      <rect x="0" y="5" width="22" height="40" fill="#E0F7FA" stroke="#00ACC1" stroke-width="1.5" rx="4"/>
      <rect x="4" y="20" width="14" height="22" fill="#81C784" rx="2"/>
      <!-- Banana Peel Sticking Out Top -->
      <path d="M 6 6 C 2 -5 -4 -2 0 6 C 8 -3 14 -8 11 6 C 18 -2 24 2 16 6 Z" fill="#FFEB3B" stroke="#F57F17" stroke-width="1"/>
      <circle cx="11" cy="4" r="2" fill="#795548"/>
    </g>
  </g>

  <!-- MISTAKE 4: Membakar Sampah Plastik (Bottom Right Corner) -->
  <g id="graphic-mistake-4" transform="translate(1190, 610)">
    <g class="item-visual">
      <!-- Trash Heap -->
      <ellipse cx="25" cy="35" rx="30" ry="12" fill="#424242"/>
      <path d="M 5 35 Q 15 25 30 32 T 48 35 Z" fill="#FF5722"/>
      <!-- Fire Flames -->
      <path d="M 15 32 Q 20 15 25 22 Q 30 10 35 32 Z" fill="#FF9800"/>
      <path d="M 20 32 Q 25 20 27 25 Q 30 18 32 32 Z" fill="#FFEB3B"/>
      <!-- Toxic Smoke Column -->
      <path d="M 20 20 Q 5 0 25 -20 T 15 -60 T 35 -100" fill="none" stroke="url(#smokeGrad)" stroke-width="24" stroke-linecap="round"/>
      <path d="M 25 15 Q 40 -5 20 -25 T 30 -65 T 20 -95" fill="none" stroke="#BDBDBD" stroke-width="14" opacity="0.5" stroke-linecap="round"/>
    </g>
  </g>

  <!-- MISTAKE 5: Ecobrick Belum Dipadatkan (On Rack Top Right) -->
  <g id="graphic-mistake-5" transform="translate(1090, 418)">
    <g class="item-visual">
      <!-- Crushed / Loose Sagging Bottle -->
      <path d="M 2 5 Q 12 10 20 5 L 24 40 Q 12 35 0 40 Z" fill="#E0F7FA" stroke="#FF9800" stroke-width="2" stroke-dasharray="3,2"/>
      <!-- Half empty plastic inside -->
      <rect x="4" y="25" width="14" height="12" fill="#CE93D8" rx="2"/>
      <text x="11" y="20" font-family="sans-serif" font-size="10" fill="#E65100" text-anchor="middle">❓</text>
    </g>
  </g>

  <!-- MISTAKE 6: Sedotan & Tutup Botol Berserakan (Near Bins on Grass) -->
  <g id="graphic-mistake-6" transform="translate(710, 500)">
    <g class="item-visual">
      <!-- Straw 1 -->
      <line x1="0" y1="5" x2="25" y2="15" stroke="#E91E63" stroke-width="4" stroke-linecap="round"/>
      <!-- Straw 2 -->
      <line x1="10" y1="20" x2="30" y2="2" stroke="#00E676" stroke-width="4" stroke-linecap="round"/>
      <!-- Straw 3 -->
      <line x1="22" y1="18" x2="38" y2="25" stroke="#FFEB3B" stroke-width="4" stroke-linecap="round"/>
      <!-- Bottle Caps -->
      <circle cx="5" cy="18" r="4" fill="#29B6F6" stroke="#0288D1" stroke-width="1"/>
      <circle cx="32" cy="10" r="4.5" fill="#FF5722" stroke="#E65100" stroke-width="1"/>
      <circle cx="18" cy="2" r="3.5" fill="#AB47BC" stroke="#7B1FA2" stroke-width="1"/>
    </g>
  </g>

  <!-- MISTAKE 7: Tisu Basah Dalam Ecobrick (On Rack Bottom Shelf Center) -->
  <g id="graphic-mistake-7" transform="translate(1025, 476)">
    <g class="item-visual">
      <!-- Ecobrick Bottle -->
      <rect x="0" y="6" width="22" height="40" fill="#E0F7FA" stroke="#00ACC1" stroke-width="1.5" rx="4"/>
      <rect x="4" y="22" width="14" height="20" fill="#90CAF9" rx="2"/>
      <!-- Wet White Tissue poking out top with water droplets -->
      <path d="M 2 8 C -3 -2 8 -4 10 6 C 14 -5 24 -1 18 8 Z" fill="#FFFFFF" stroke="#B0BEC5" stroke-width="1"/>
      <!-- Mold / Water drops -->
      <circle cx="7" cy="1" r="1.5" fill="#29B6F6"/>
      <circle cx="14" cy="2" r="1.5" fill="#81C784"/>
    </g>
  </g>

  <!-- MISTAKE 8: Plastik Kotor Langsung Masuk Ecobrick (Near Rack Base) -->
  <g id="graphic-mistake-8" transform="translate(930, 505)">
    <g class="item-visual">
      <!-- Oily/Dirty Plastic Bag with Brown Spots -->
      <path d="M 5 10 Q 18 0 32 8 Q 38 22 28 32 Q 10 35 2 22 Z" fill="#FFF59D" stroke="#FBC02D" stroke-width="1.5"/>
      <!-- Dirt / Oil Stains -->
      <circle cx="12" cy="16" r="5" fill="#795548" opacity="0.7"/>
      <circle cx="24" cy="22" r="4" fill="#5D4037" opacity="0.8"/>
      <path d="M 15 24 Q 20 28 26 25" fill="none" stroke="#3E2723" stroke-width="2"/>
      <!-- Flies buzzing -->
      <circle cx="8" cy="6" r="1" fill="#000000"/><line x1="6" y1="5" x2="10" y2="7" stroke="#000000" stroke-width="0.5"/>
      <circle cx="28" cy="5" r="1" fill="#000000"/>
    </g>
  </g>

  <!-- MISTAKE 9: Sampah Tercampur di Tempat Sampah Pilah (Organic Bin Overflow) -->
  <g id="graphic-mistake-9" transform="translate(748, 410)">
    <g class="item-visual">
      <!-- Mixed plastic items sticking out of organic bin -->
      <!-- Plastic bottle in organic bin -->
      <rect x="0" y="5" width="12" height="20" fill="#E0F7FA" stroke="#00BCD4" stroke-width="1" rx="2" transform="rotate(25)"/>
      <rect x="4" y="1" width="4" height="5" fill="#E53935" transform="rotate(25)"/>
      <!-- Plastic bag sticking out -->
      <path d="M 15 12 Q 22 0 30 10 Q 25 22 18 18 Z" fill="#E1BEE7" stroke="#8E24AA" stroke-width="1"/>
      <!-- Warning Alert Icon -->
      <circle cx="15" cy="-5" r="7" fill="#FF3D00"/>
      <text x="15" y="-2" font-family="sans-serif" font-weight="bold" font-size="9" fill="#FFFFFF" text-anchor="middle">!</text>
    </g>
  </g>

  <!-- MISTAKE 10: Bungkus Permen Dibuang Sembarangan (Near Littering Boy) -->
  <g id="graphic-mistake-10" transform="translate(905, 455)">
    <g class="item-visual">
      <!-- Candy Wrapper Flying / Dropped on Grass next to Blue Bin -->
      <path d="M 0 8 L 8 12 L 20 4 L 28 10 L 20 16 L 8 8 Z" fill="#E91E63" stroke="#C2185B" stroke-width="1.5"/>
      <!-- Twist ends -->
      <polygon points="0,8 -4,2 -2,14" fill="#FF4081"/>
      <polygon points="28,10 34,4 32,16" fill="#FF4081"/>
      <!-- Motion arc lines -->
      <path d="M 5 -10 Q 15 -5 18 2" fill="none" stroke="#FFB300" stroke-width="1.5" stroke-dasharray="3,2"/>
    </g>
  </g>

</svg>
